<svg viewBox="0 0 900 280" xmlns="http://www.w3.org/2000/svg">
  <defs>
    <linearGradient id="trailerGradient" x1="0%" y1="0%" x2="0%" y2="100%">
      <stop offset="0%" style="stop-color:#3b4a5a"/>
      <stop offset="100%" style="stop-color:#1e293b"/>
    </linearGradient>
    <linearGradient id="cabGradient" x1="0%" y1="0%" x2="0%" y2="100%">
      <stop offset="0%" style="stop-color:#6b7280"/>
      <stop offset="100%" style="stop-color:#374151"/>
    </linearGradient>
    <linearGradient id="wheelGradient" x1="0%" y1="0%" x2="0%" y2="100%">
      <stop offset="0%" style="stop-color:#374151"/>
      <stop offset="100%" style="stop-color:#1f2937"/>
    </linearGradient>
  </defs>
  
  <ellipse cx="450" cy="265" rx="400" ry="12" fill="rgba(0,0,0,0.3)"/>
  
  <!-- Trailer Body -->
  <rect x="50" y="60" width="580" height="160" rx="8" fill="url(#trailerGradient)" stroke="#475569" stroke-width="2"/>
  <rect x="50" y="55" width="580" height="12" rx="4" fill="#4b5563"/>
  <rect x="50" y="62" width="30" height="156" fill="#2d3748" stroke="#475569" stroke-width="1"/>
  <circle cx="65" cy="140" r="4" fill="#6b7280"/>
  <rect x="625" y="170" width="40" height="20" fill="#374151" stroke="#475569" stroke-width="1"/>
  
  <!-- Mercedes Actros Cab - элегантный закруглённый дизайн -->
  <path d="M665 82 Q665 75 672 75 L800 75 Q818 75 822 90 L828 150 L828 200 Q828 220 808 220 L665 220 Z" fill="url(#cabGradient)" stroke="#1f2937" stroke-width="2"/>
  <rect x="678" y="90" width="50" height="40" rx="5" fill="#0f172a" opacity="0.7"/>
  <rect x="733" y="88" width="68" height="54" rx="6" fill="rgba(209, 213, 219, 0.3)" stroke="#9ca3af" stroke-width="1"/>
  <rect x="678" y="155" width="60" height="22" rx="3" fill="#1f2937"/>
  <circle cx="693" cy="166" r="3" fill="#9ca3af"/>
  <rect x="816" y="135" width="10" height="14" rx="2" fill="#fef08a"/>
  <rect x="816" y="155" width="10" height="10" rx="2" fill="#f97316"/>
  
  <!-- Mercedes Star -->
  <circle cx="750" cy="115" r="8" fill="none" stroke="#d1d5db" stroke-width="1.5"/>
  <text x="685" y="145" font-size="8" fill="#d1d5db" font-weight="bold">MERCEDES</text>
  
  <!-- Wheels -->
  <circle cx="180" cy="235" r="28" fill="url(#wheelGradient)" stroke="#1f2937" stroke-width="3"/>
  <circle cx="180" cy="235" r="12" fill="#4b5563"/>
  <circle cx="220" cy="235" r="28" fill="url(#wheelGradient)" stroke="#1f2937" stroke-width="3"/>
  <circle cx="220" cy="235" r="12" fill="#4b5563"/>
  <circle cx="520" cy="235" r="28" fill="url(#wheelGradient)" stroke="#1f2937" stroke-width="3"/>
  <circle cx="520" cy="235" r="12" fill="#4b5563"/>
  <circle cx="560" cy="235" r="28" fill="url(#wheelGradient)" stroke="#1f2937" stroke-width="3"/>
  <circle cx="560" cy="235" r="12" fill="#4b5563"/>
  <circle cx="720" cy="235" r="32" fill="url(#wheelGradient)" stroke="#1f2937" stroke-width="3"/>
  <circle cx="720" cy="235" r="14" fill="#4b5563"/>
  <circle cx="780" cy="235" r="32" fill="url(#wheelGradient)" stroke="#1f2937" stroke-width="3"/>
  <circle cx="780" cy="235" r="14" fill="#4b5563"/>
  
  <rect x="245" y="220" width="30" height="30" rx="2" fill="#1f2937"/>
  <rect x="585" y="220" width="30" height="30" rx="2" fill="#1f2937"/>
</svg>
