<svg viewBox="0 0 900 280" xmlns="http://www.w3.org/2000/svg">
  <defs>
    <linearGradient id="trailerGradient" x1="0%" y1="0%" x2="0%" y2="100%">
      <stop offset="0%" style="stop-color:#3b4a5a"/>
      <stop offset="100%" style="stop-color:#1e293b"/>
    </linearGradient>
    <linearGradient id="cabGradient" x1="0%" y1="0%" x2="0%" y2="100%">
      <stop offset="0%" style="stop-color:#dc2626"/>
      <stop offset="100%" style="stop-color:#991b1b"/>
    </linearGradient>
    <linearGradient id="wheelGradient" x1="0%" y1="0%" x2="0%" y2="100%">
      <stop offset="0%" style="stop-color:#374151"/>
      <stop offset="100%" style="stop-color:#1f2937"/>
    </linearGradient>
  </defs>
  
  <ellipse cx="450" cy="265" rx="400" ry="12" fill="rgba(0,0,0,0.3)"/>
  
  <!-- Trailer Body -->
  <rect x="50" y="60" width="580" height="160" rx="8" fill="url(#trailerGradient)" stroke="#475569" stroke-width="2"/>
  <rect x="50" y="55" width="580" height="12" rx="4" fill="#4b5563"/>
  <rect x="50" y="62" width="30" height="156" fill="#2d3748" stroke="#475569" stroke-width="1"/>
  <circle cx="65" cy="140" r="4" fill="#6b7280"/>
  <rect x="625" y="170" width="40" height="20" fill="#374151" stroke="#475569" stroke-width="1"/>
  
  <!-- Scania Cab - характерный V-образный профиль -->
  <path d="M665 78 L665 220 L805 220 L830 145 L830 95 Q825 78 805 78 Z" fill="url(#cabGradient)" stroke="#7f1d1d" stroke-width="2"/>
  <polygon points="805,78 830,95 830,78" fill="#991b1b"/>
  <rect x="675" y="92" width="52" height="42" rx="4" fill="#0f172a" opacity="0.7"/>
  <rect x="732" y="92" width="70" height="52" rx="5" fill="rgba(254, 202, 202, 0.3)" stroke="#fca5a5" stroke-width="1"/>
  <rect x="675" y="155" width="62" height="24" rx="2" fill="#450a0a"/>
  <circle cx="690" cy="167" r="3" fill="#dc2626"/>
  <rect x="818" y="132" width="10" height="14" rx="2" fill="#fef08a"/>
  <rect x="818" y="152" width="10" height="10" rx="2" fill="#f97316"/>
  
  <text x="700" y="142" font-size="11" fill="#fef2f2" font-weight="bold">SCANIA</text>
  
  <!-- Wheels -->
  <circle cx="180" cy="235" r="28" fill="url(#wheelGradient)" stroke="#1f2937" stroke-width="3"/>
  <circle cx="180" cy="235" r="12" fill="#4b5563"/>
  <circle cx="220" cy="235" r="28" fill="url(#wheelGradient)" stroke="#1f2937" stroke-width="3"/>
  <circle cx="220" cy="235" r="12" fill="#4b5563"/>
  <circle cx="520" cy="235" r="28" fill="url(#wheelGradient)" stroke="#1f2937" stroke-width="3"/>
  <circle cx="520" cy="235" r="12" fill="#4b5563"/>
  <circle cx="560" cy="235" r="28" fill="url(#wheelGradient)" stroke="#1f2937" stroke-width="3"/>
  <circle cx="560" cy="235" r="12" fill="#4b5563"/>
  <circle cx="720" cy="235" r="32" fill="url(#wheelGradient)" stroke="#1f2937" stroke-width="3"/>
  <circle cx="720" cy="235" r="14" fill="#4b5563"/>
  <circle cx="780" cy="235" r="32" fill="url(#wheelGradient)" stroke="#1f2937" stroke-width="3"/>
  <circle cx="780" cy="235" r="14" fill="#4b5563"/>
  
  <rect x="245" y="220" width="30" height="30" rx="2" fill="#1f2937"/>
  <rect x="585" y="220" width="30" height="30" rx="2" fill="#1f2937"/>
</svg>
