<svg viewBox="0 0 900 280" xmlns="http://www.w3.org/2000/svg">
  <defs>
    <linearGradient id="trailerGradient" x1="0%" y1="0%" x2="0%" y2="100%">
      <stop offset="0%" style="stop-color:#3b4a5a"/>
      <stop offset="100%" style="stop-color:#1e293b"/>
    </linearGradient>
    <linearGradient id="cabGradient" x1="0%" y1="0%" x2="0%" y2="100%">
      <stop offset="0%" style="stop-color:#0ea5e9"/>
      <stop offset="100%" style="stop-color:#0284c7"/>
    </linearGradient>
    <linearGradient id="wheelGradient" x1="0%" y1="0%" x2="0%" y2="100%">
      <stop offset="0%" style="stop-color:#374151"/>
      <stop offset="100%" style="stop-color:#1f2937"/>
    </linearGradient>
  </defs>
  
  <!-- Ground shadow -->
  <ellipse cx="450" cy="265" rx="400" ry="12" fill="rgba(0,0,0,0.3)"/>
  
  <!-- Trailer Body - CARGO AREA: x=80, y=70, width=540, height=140 -->
  <rect x="50" y="60" width="580" height="160" rx="8" fill="url(#trailerGradient)" stroke="#475569" stroke-width="2"/>
  <rect x="50" y="55" width="580" height="12" rx="4" fill="#4b5563"/>
  
  <!-- Rear Door -->
  <rect x="50" y="62" width="30" height="156" fill="#2d3748" stroke="#475569" stroke-width="1"/>
  <circle cx="65" cy="140" r="4" fill="#6b7280"/>
  
  <!-- Trailer Connection -->
  <rect x="625" y="170" width="40" height="20" fill="#374151" stroke="#475569" stroke-width="1"/>
  
  <!-- Volvo Cab -->
  <path d="M665 80 L665 220 L800 220 L820 160 L820 100 Q820 80 800 80 Z" fill="url(#cabGradient)" stroke="#0369a1" stroke-width="2"/>
  <rect x="675" y="95" width="50" height="40" rx="4" fill="#0f172a" opacity="0.7"/>
  <rect x="730" y="95" width="60" height="50" rx="6" fill="rgba(125, 211, 252, 0.3)" stroke="#7dd3fc" stroke-width="1"/>
  <rect x="675" y="160" width="60" height="20" rx="2" fill="#1e293b"/>
  <circle cx="690" cy="170" r="3" fill="#6b7280"/>
  <rect x="810" y="140" width="8" height="12" rx="2" fill="#fef08a"/>
  <rect x="810" y="160" width="8" height="8" rx="2" fill="#f97316"/>
  <rect x="820" y="100" width="8" height="40" rx="2" fill="#374151"/>
  
  <!-- Brand -->
  <text x="700" y="145" font-size="12" fill="#fff" font-weight="bold" opacity="0.9">VOLVO</text>
  
  <!-- Wheels -->
  <circle cx="180" cy="235" r="28" fill="url(#wheelGradient)" stroke="#1f2937" stroke-width="3"/>
  <circle cx="180" cy="235" r="12" fill="#4b5563"/>
  <circle cx="220" cy="235" r="28" fill="url(#wheelGradient)" stroke="#1f2937" stroke-width="3"/>
  <circle cx="220" cy="235" r="12" fill="#4b5563"/>
  <circle cx="520" cy="235" r="28" fill="url(#wheelGradient)" stroke="#1f2937" stroke-width="3"/>
  <circle cx="520" cy="235" r="12" fill="#4b5563"/>
  <circle cx="560" cy="235" r="28" fill="url(#wheelGradient)" stroke="#1f2937" stroke-width="3"/>
  <circle cx="560" cy="235" r="12" fill="#4b5563"/>
  <circle cx="720" cy="235" r="32" fill="url(#wheelGradient)" stroke="#1f2937" stroke-width="3"/>
  <circle cx="720" cy="235" r="14" fill="#4b5563"/>
  <circle cx="780" cy="235" r="32" fill="url(#wheelGradient)" stroke="#1f2937" stroke-width="3"/>
  <circle cx="780" cy="235" r="14" fill="#4b5563"/>
  
  <!-- Mud flaps -->
  <rect x="245" y="220" width="30" height="30" rx="2" fill="#1f2937"/>
  <rect x="585" y="220" width="30" height="30" rx="2" fill="#1f2937"/>
</svg>
